<svg width="324" height="308" version="1.1"
  xmlns="http://www.w3.org/2000/svg" desc="Created with imagetracer.js version 1.2.6">
  <path fill="rgb(0,0,0)" stroke="rgb(0,0,0)" stroke-width="0" opacity="1" d="M 165.5 75 Q 177.62 74.88 182 82.5 L 185 94.5 L 177.5 106 L 165.5 109 L 154 101.5 L 151 89.5 L 158.5 78 L 165.5 75 Z "></path>
  <path fill="rgb(0,0,0)" stroke="rgb(0,0,0)" stroke-width="0" opacity="1" d="M 207.5 88 L 212 89 L 213 93.5 L 212 96 L 207.5 97 L 205 96 L 204 91.5 L 205 89 L 207.5 88 Z "></path>
  <path fill="rgb(0,0,0)" stroke="rgb(0,0,0)" stroke-width="0" opacity="1" d="M 102 117 L 125 117 L 125 133 L 102 133 L 102 117 Z "></path>
  <path fill="rgb(0,0,0)" stroke="rgb(0,0,0)" stroke-width="0" opacity="1" d="M 133 117 L 190.5 117 L 191 119.5 L 204 168.5 L 189 169 L 189 224.5 L 172 225 L 172 174.5 L 164 174 L 164 225 L 147 225 L 147 133.5 L 133 133 L 133 117 Z M 155 134 L 155 143 L 157 139 L 159 143 Q 163 144 161 135 L 159 136 L 155 138 L 155 134 Z M 158 149 L 158 158 L 160 153 L 164 158 L 163 151 L 158 149 Z M 168 151 L 165 157 L 170 158 L 171 156 L 167 157 L 171 153 L 168 151 Z M 179 151 L 176 154 L 178 158 L 182 157 L 181 157 L 178 155 L 183 155 L 182 153 L 179 151 Z "></path>
</svg>