<svg xmlns="http://www.w3.org/2000/svg" width="291" height="408" viewBox="0 0 291 408"><path d="M14.5, 16L19.5, 16L32.37892201915383, 21.345671769231558L34.282984774559736, 26.4047341234982L36.963797111064196, 30.81654680892825L40.42135938629508, 34.58110946789384L43.5, 37L55.5, 42L69.5, 51L73.91834703169297, 64.92420666347607L72, 76.5L78.16586303710938, 77.64857508789282L79, 81.5L77.01556307077408, 88.35943692922592L80.03631323575974, 92.83868676424026L81, 97.5L80, 102.5L89.2304684817791, 110.0507815182209L94.07128888368607, 115.06542986631393L99.07812535762787, 115.29687464237213L102.5, 117L105.5, 117L120.5, 124L124.5, 124L130, 126L128.5, 116.25L138, 112L142, 99.5L144.5, 97L148.96506476402283, 97.22656351327896L153.1993124485016, 96.38281267881393L153, 91.5L154, 86.5L149, 78.5L149, 61.5L151.7995398491621, 54.7490234375L155, 60L158, 58.5L153, 49.5L157, 48L158, 44L161, 45.5L162.5, 49L170.5, 45L173.5, 49L180.33568620681763, 49.33568727970123L184.44993448257446, 47.44993698596954L188.5, 47L197.25, 56.25L197.82812368869781, 51.492187678813934L198.6406239271164, 47.710937321186066L202, 48.5L204, 55.5L199.70330724550877, 69.95819108915748L194.75, 67.75L195.3308602720499, 72.3933589309454L194.72519556432962, 78.31894578784704L192.3216794654727, 83.04043013602495L188.5, 86L185, 91.5L188.5, 89L191.5, 91L201.5, 92L205.5, 90L206.75, 97.25L213.5, 101L217, 101L218.19803231954575, 90.57303044199944L219.06256353855133, 85.81256228685379L226.9853515625, 73.46022687107325L233, 67.5L233.29296985268593, 58.074218064546585L236.5, 58L243.177734375, 59.298828125L241, 55.5L243, 51.5L239, 43.5L239, 37.5L242.5, 36L247.5, 43L248.75, 32.75L252, 33.5L254, 42.5L256, 45.5L256, 50.5L259.9853515625, 56.53977354243398L263.81249713897705, 62.687499821186066L264.7812466621399, 67.21874949336052L273, 73.5L279, 83.5L281, 89.5L282, 100.5L280, 103.5L280, 109.5L278, 114.5L271.5, 124L259.5, 132L252.5, 134L245.75, 134.75L257, 152.5L261, 162.5L267.24375000596046, 173.38124972581863L268, 180.5L263, 187.5L263.01556038856506, 192.35943853855133L266.0363051891327, 196.83868873119354L267, 201.5L272, 206.5L273, 211.5L277, 222.5L276, 227.5L272.7753753683064, 243.44457558140857L274, 246.5L269.08203125, 251.87890625L273, 257.5L272, 260.5L274, 264.5L269.21094024181366, 270.8812538385391L265.5, 271L261.5, 276L258, 276L254.40780724585056, 283.96288788318634L250.5, 286.5L246, 289.5L244.95960152282942, 302.72473055298633L246, 307.5L241.16601699590683, 314.0640558600426L237.75, 314.75L240.5, 323.75L235.5, 324L232.5, 330L228.5, 328L218.91662542521954, 325.64294597506523L213.14062774181366, 329.20312279462814L213.5, 324.25L207.26438277959824, 322.1542957723141L206, 326.5L221, 347.5L219, 351.5L229, 367.5L229, 378.5L224.2116492241621, 382.1884765625L223, 378L216.5843771994114, 383.89803034067154L215, 386.5L214.25, 396.25L211, 395.5L211, 385.5L208.5, 383L205.45840495824814, 385.95840495824814L202.25012350082397, 388.750123500824L198.87515527009964, 391.37515527009964L195.33349990844727, 393.83349990844727L191.62515705823898, 396.125157058239L187.75012636184692, 398.2501263618469L183.70840746164322, 400.2084074616432L178.08203125, 398.82421875L180, 394.5L184, 374.5L188, 363.5L188, 354.5L179.5, 344L173.5, 347L172, 343L163, 345L160.1692101508379, 350.1884765625L159, 347L153, 348L147.99374996335246, 351.33653552201577L144.5, 348L141.5, 350L138.5, 349L134, 355.5L132, 362.5L130.125, 371.375L128.5, 360L128, 343.5L127, 338.5L129, 331L126, 332.5L122, 341.5L122, 347.5L118, 351.5L116, 358.5L108.5, 369L103.5, 370L86.80196937918663, 358.57303607463837L85.93743807077408, 353.8125660419464L94.5, 341L100, 336.5L102.5, 332L114, 321.5L114, 316.5L124, 301.5L130, 287.5L132, 278L126.5, 278L123, 276L122, 269.5L124, 265.5L119.5, 262L109.5, 260L97.5, 260L92.47215737402439, 261.2221545577049L87.72012674808502, 262.72012281417847L83.24390821158886, 264.49390441179276L79.04350185394287, 266.5434989929199L75.11890776455402, 268.8689061999321L71.47012603282928, 271.4701256752014L68.09715674817562, 274.3471570611L65, 277.5L63.5, 288L64, 297.5L68, 308.5L69, 323.5L64.25, 330.75L62, 336.5L67.75, 342.75L64.81127877929248, 350.3229959765449L61.5, 350L59.10812550783157, 347.891872882843L57.227500438690186, 345.2724952697754L55.858125150203705, 342.14187002182007L55, 338.5L43, 322.5L40.4894694685936, 313.8855367898941L39.062437891960144, 309.68756461143494L40, 304.5L40.24374936521053, 288.93124878406525L41.087499767541885, 284.7124984264374L44.5, 278L49.5, 274L54.5, 274L64.5, 269L74.5, 261L90.5, 254L117.5, 254L122, 255L122, 250L116.25, 249.25L110.5, 244.5L110.69549543428002, 234.68481393554248L116, 233L116, 221L110.32031244784594, 220.61718833446503L105.91406198590994, 218.77344071865082L102.1328114643693, 216.30469119548798L98.97656159847975, 213.2109397649765L97, 210.5L87.5, 198L75, 188.5L73, 182.5L73, 177.5L76, 171.5L76, 168.5L83.31250074505806, 161.68749886751175L88.12500017881393, 160.8749989271164L92, 162L95.77499914169312, 166.22500085830688L99.97499799728394, 168.02500200271606L102, 170.5L108.75, 178.25L109, 174.5L109, 157.5L94.5, 138L85.5, 131L78.5, 134L69, 126.5L65, 118.5L65, 115.5L67, 108.5L61.75, 105.75L64, 109.5L59.5, 114L56.5, 114L52, 109.5L51, 102L45.757812281139195, 104.22851518727839L44.90624948218465, 108.5078114643693L44.781249549239874, 112.85156159847975L45, 116.5L41.56988677382469, 121.70732463523746L42.97931292653084, 125.77068823575974L43, 129.5L36.326171656139195, 133.39257900044322L34.83593698218465, 129.5390645712614L34.617187049239874, 125.2578143030405L36.16015584021807, 118.94140487909317L36, 115.5L34, 112.5L34.5, 101.5L36.5, 113.5L40.8810607279226, 110.96968931860943L42, 95L36.5, 93L29.0615234375, 87.61789812892675L29.085937544703484, 95.22656232118607L29.296874910593033, 100.07812535762787L24.25, 106.25L23, 82.5L14, 70.5L15.000000093132257, 64.00000028312206L15.250000022351742, 59.7500002682209L9, 41.5L8, 29L11.5, 29L26.12109375, 40.91796875L17, 39L20, 51.5L24.5, 59L29, 57L38.179534482129384, 48.01157262577908L38.94921888411045, 41.76953111588955L36.5, 40L25, 31.5L24, 27L18.5, 25L14, 20.5ZM42, 47L36, 53L31.620605425952817, 67.29278504336253L26.902343716472387, 59.84765590727329L29.02044662705157, 70.98345904267626L40, 82L43, 80L48, 81L49.87500071525574, 78.37499856948853L51.500000953674316, 75.49999809265137L52.87500071525574, 72.37499856948853L54, 69L53.5, 56L47, 48ZM177.68514954371494, 58.27209487658547ZM102.5, 134L114.17187527567148, 150.0351565182209L117, 154L123.37500035762787, 156.8749989271164L128.93750101327896, 158.1874993443489L134, 163L129, 146ZM224, 308L227, 314L231.0351565182209, 314.8281238973141ZM204.560303164355, 360.11383004882373ZM218, 358L217, 361L222.17187444865704, 368.89062336087227L223, 366ZM199, 363L197.3125, 369.31249713897705L195.25, 375.25L192.8125, 380.81250286102295L191.17187444865704, 387.89062336087227L200, 375ZM59.5, 212L94.25, 212.75L95, 244.5L92.5, 247L58.75, 246.25ZM71, 217L76, 224L79, 224L84, 218ZM77, 233L69, 242L89, 242L86, 241Z" fill="rgba(255,0,255,0.3)" stroke="rgba(255,0,255,0.7)" stroke-width="0.5"></path></svg>