<svg xmlns="http://www.w3.org/2000/svg" width="476" height="456" viewBox="0 0 476 456"><path d="M240.5, 124L245.39328056573868, 123.98171912133694L249.87062311172485, 124.37937581539154L253.9320279955864, 125.19296999275684L257.5774955749512, 126.42250156402588L260.80702620744705, 128.06797043979168L263.6206202507019, 130.12937653064728L266.0182780623436, 132.6067197471857L268.64062374830246, 136.35937437415123L270.82812267541885, 140.17187383770943L272.2656258940697, 144.73437544703484L272.953127682209, 150.0468763411045L273, 154.5L271.8319978713989, 159.0819993019104L270.2760009765625, 163.2760009765625L268.3320035934448, 167.08200216293335L266, 170.5L266, 173.5L279, 181.5L284, 192.5L294, 231.5L294, 244.5L287.5, 252L279.5, 257.5L278.5, 301L278, 310.5L270.57031455636024, 320.1953125L266.5156258940697, 321.765625L262.07812267541885, 322.328125L256.89062374830246, 322.140625L248.5, 319L239.69023441523314, 320.1589821577072L235.88046963512897, 321.69296431541443L231.70234529674053, 322.264839887619L226.8117193132639, 322.12421774864197L222.07812213897705, 321.1718764305115L219.18749618530273, 319.81250381469727L216.82812213897705, 317.9218792915344L215, 315.5L212, 306.5L212, 245.5L214, 237.5L219, 229.5L219, 225.5L209.5, 211L206.5, 210L169.5, 209L158.2433577477932, 200.4753922522068L157.00468528270721, 196.37031471729279L156.7609361410141, 192.1140638589859L157, 188.5L157.82812571525574, 185.07812213897705L159.18750190734863, 182.18749618530273L161.0781271457672, 179.82812213897705L163.5, 178L173.5, 175L186, 175.5L200.5, 177L209.5, 175L221.5, 175L225, 172.5L218, 157.5L218, 145.5L219.5111267566681, 141.26112532615662L221.4315013885498, 137.4315013885498L223.76112532615662, 134.0111267566681L226.5, 131ZM292.81997084617615, 141.86753103137016L298.9913057088852, 142.22745425999165L303.4415217638016, 144.9022367745638L305, 147.5L306, 153.5L300.71868324279785, 161.593688249588L296.6769275665283, 163.0519368648529L292.5, 163L286, 158.5L284, 150.5Z" fill="rgba(255,0,255,0.3)" stroke="rgba(255,0,255,0.7)" stroke-width="0.5"></path></svg>