<svg xmlns="http://www.w3.org/2000/svg" width="234" height="408" viewBox="0 0 234 408"><path d="M116.5, 4L129.5, 4L134.87890625, 8.91796875L146, 22.5L148, 31.5L153, 38.5L158.17620670667384, 52.90733418124L158, 56.5L160.5, 61L164.5, 63L178.5, 65L181, 67.5L182, 71.5L180, 78.5L182, 81.5L185, 103.5L188, 107.5L189.16015461087227, 121.05859512090683L189, 124.5L191, 127.5L191, 139.5L184.5, 147L177.5, 152L157, 160.5L164, 177.5L165, 184.5L169, 194.5L169, 200.5L172, 213.5L190, 233.25L195.87890625, 238.91796875L218.8073523491621, 262.7490234375L223, 266.5L231, 280.5L227.5, 282L224.5, 279L215.5, 276L181.125, 242.875L189, 263.5L189, 267.5L194, 283.5L194, 293.5L186.5, 304L183, 306.5L181, 312.5L183, 316.5L177.541015625, 322.689453125L177.593688249588, 349.28131675720215L179.0519368648529, 353.3230724334717L179, 357.5L177, 360.5L179, 366.5L178.5, 371L179, 379.5L183, 387.5L183, 396.5L175.57303267717361, 404.1980367898941L170.8125628232956, 405.06256461143494L164.5, 404L162, 401.5L158, 390.5L161, 386.5L161, 366.5L159, 360.5L157, 339.5L153.5, 330L149.9250032901764, 330.92499685287476L145.90000343322754, 331.39999771118164L141.42500185966492, 331.4249997138977L136.5, 331L134, 328.5L132.60156178474426, 323.2265639305115L131.28515660762787, 328.09765553474426L116, 323L115.91406232118607, 333.22656178474426L115.70312535762787, 338.0781264305115L118, 343.5L119, 359.5L114.5, 367L108.5, 367.5L103.25, 370.75L95.5, 376L78.5, 376L73.92193692922592, 371.17193603515625L75.57559338212013, 365.9505920410156L80.57587623596191, 364.07587909698486L84.18450164794922, 362.6845016479492L87.32587623596191, 360.82587337493896L90, 358.5L96.25501832086593, 346.12464774469845L97.83984293043613, 326.9414007663727L89.84956359863281, 316.8868272814434L89, 311.5L91, 302L86.31548458337784, 302.0638737678528L80.9884222149849, 301.11737298965454L76.76410967111588, 298.93287324905396L73.64254695177078, 295.510374546051L74, 289.5L75.5, 254L77, 242.5L79, 238.5L79, 233.5L69.78515625, 237.12109375L71, 230L74.5, 227.5L72.5, 223L46, 270.5L30, 303.5L15, 328.5L3.8153482689776865, 332.69855635240674L7, 321.5L20, 300.5L39, 264.5L49, 249.5L64, 219.5L63.86824977397919, 211.63175094127655L60.98199939727783, 208.51800346374512L59.736499547958374, 205.76350331306458L59.5, 201.25L66.37493771314621, 199.56250035762787L67.16650104522705, 194.75000190734863L67.24987614154816, 190.8750021457672L64.51123154407833, 181.46533121261746L65.39843761734664, 176.47656218707561L66, 166.5L68.5, 164L72, 162.5L77, 140.5L79, 129.5L83, 122.5L83.5, 107.5L75.9007568359375, 115.48736555146752L77.25, 109.25L68.5, 117L65.75, 116.25L67, 112L85, 97.5L88.31249943375587, 77.68749925494194L89.1249994635582, 72.87499982118607L91.5, 69L100, 67L96.95985412597656, 61.27097755932482L100.14074802398682, 57.478249698877335L98.71226223139092, 53.001576659153216L102, 44.5L99.04525756835938, 43.97984301025281L97, 40.5L102, 29.5L101, 25.5L104, 19.5L105, 13.5L113.5, 5ZM160, 126L159, 131L156, 140L158, 143L160, 139ZM87, 200L78.23248351132497, 220.56811403203756L87, 204Z" fill="rgba(255,0,255,0.3)" stroke="rgba(255,0,255,0.7)" stroke-width="0.5"></path></svg>