<svg xmlns="http://www.w3.org/2000/svg" width="286" height="404" viewBox="0 0 286 404"><path d="M121.04691586492117, 4.383312644224134L117.5, 4L119.5, 7L124.5, 4L129.25, 5L138.63281337544322, 16.837890515569597L144.07031428441405, 20.166015401948243L146, 22.5L147, 31.5L149.5, 34L153, 33L153, 39.25L150, 40L148, 49.5L150, 53L157.2578125, 58.94531306438148L154.8466796875, 66.65136771346442L157.5, 73L163, 74L160.5, 78L157, 79L155.5, 82L145.94140899181366, 81.83984293043613L142.5, 82L145.82040969096124, 88.87634281627834L149.5, 88L156.5, 93L163.5, 95L169.5, 95L181.07977208925877, 103.78985578584252L188.5, 115L191.5, 115L197, 119.5L196, 123L202.4467544555664, 132.21968841552734L210.4616489559412, 140.9384765625L215.5, 139L225, 129.5L228, 123L231, 121.5L231.5, 116L231, 107.5L240.94853156805038, 92.49511725455523L241, 83.5L242, 79.5L247.5, 74L255.5, 71L262.5, 71L271.5, 73L280, 79.5L284, 86.5L284, 90.5L276, 112.5L275, 117.5L274, 121.5L271, 127.5L271, 130.5L267.5, 134L264, 135L268.9023492336273, 150.80859538912773L272.5, 151L277, 154.5L278, 159.5L281, 164.5L280, 169.5L278.33569049835205, 175.33568620681763L276.4499444961548, 179.44993448257446L276, 184.5L275.5, 192L276, 206.5L278, 210L281, 211.5L280, 221.5L275.5, 229L271.75, 225.5L226.8485481389156, 217.2771522930482L226, 214L222.5, 212L217.5, 212L208.03761749574915, 206.85733449459076L202.92187571525574, 206.70312428474426L200, 208.5L199, 218.5L201, 222.5L200, 225.5L214, 245L207, 249.5L216, 264.5L224, 282.5L229, 289.5L235.48437464237213, 309.10937428474426L231.59375071525574, 310.8437514305115L226, 315.5L224.5312478542328, 319.2812542915344L222.62499809265137, 322.62500381469727L220.28124928474426, 325.5312514305115L217.5, 328L207.5, 334L184, 343.5L183.77343952655792, 347.9650626182556L184.61718785762787, 352.1993145942688L189.5, 356L193, 356L196.5, 360.5L200.125, 362.625L206.125, 365.5L210.5, 367L211.95985412597656, 369.3794085807167L218.5, 370L228.5, 377.5L228, 380.5L227.72912645339966, 385.2291257381439L223.36100387573242, 386.8610038757324L219.70825290679932, 387.2082543373108L215.5, 387L209.5, 385L206.5, 387L194.5, 383L187.5, 383L174.94140899181366, 383.83984047174454L171.5, 384L165, 378.5L164, 364.5L158.5, 354L150.5, 357L123.5, 357L120, 358L121, 362L124, 363.5L126.5, 370L130.5, 372.25L132, 377L135, 378.5L138.5, 383L142, 383L144.7490234375, 387.830791503191L151, 391.5L150.54827565699816, 397.82952277362347L146.75122001767159, 399.3762213587761L142.3878434598446, 399.5128474831581L138.5, 399L134.60156178474426, 395.2265639305115L133.28515660762787, 400.09765553474426L127.5, 402L117.89007611357374, 402.1449591808487L110.5, 400L105.5, 400L102, 397.5L103, 394.5L99, 385.5L99, 381.5L100, 377.5L97, 373.5L97, 370.5L89.5, 355L70.5, 352L60.5, 349L54.5, 345L47.5, 356L40.5, 355L16.5, 372L11.5, 374L2.8339843857102096, 370.93612509965897L30, 348L32, 344.5L32, 341.5L36.073499500751495, 337.57350397109985L39.59799909591675, 333.0980033874512L42.57349914312363, 328.0735011100769L45, 322.5L46, 301.5L47.680250227451324, 297.9302496910095L48.90700006484985, 293.9070014953613L49.680249869823456, 289.43025255203247L50, 284.5L54, 276.5L54.48712491989136, 271.7371242046356L56.351624965667725, 266.60162568092346L61.74999991059303, 241.2499989271164L62.37499974668026, 236.3749993443489L63.5, 213L55, 212L55, 208.5L59, 202.5L59, 199.5L48, 195.5L54, 183.5L55, 178.5L59, 172.5L59.5712496638298, 168.32124948501587L60.59499979019165, 164.59500122070312L62.07125002145767, 161.32125234603882L64, 158.5L64.5, 140.5L64, 137.5L66, 126.5L68.5, 123L72, 120.5L73, 117.5L88.5, 100L93.5, 96L103, 93.25L103.16539430990815, 89.09423828125L84.5, 96.5L76.203125, 96.69531263411045L69.75, 99.25L72, 95.5L67, 91.5L70.5, 90L74.5, 91L76.12890625, 84.19921875L71, 75.5L71, 72.5L71.375, 68.625L70.62499982118607, 58.62500008940697L72.12499898672104, 54.12500050663948L71.58329720795155, 48.41670326143503L70.2498600333929, 43.750140838325024L69.5831717401743, 38.41682792454958L69.49987435340881, 34.00012457370758L69.66659316420555, 30.833405897021294L70, 27.5L71.75887548923492, 23.508875131607056L73.92850017547607, 19.928500175476074L76.50887477397919, 16.758875131607056L79.5, 14L92.5, 7L96.5, 7L105.5, 4ZM81.03906213492155, 15.789062486961484L77.50781140476465, 19.257812371477485L74.60156168788671, 23.351562241092324L72.320312269032, 28.070312274619937L71, 32L72.5, 37L73, 34L76, 30L76, 25L80, 19ZM267, 76L264, 82L259, 84L261, 88L264, 86L267, 81ZM247, 146L242, 155L247.14074655131844, 156.15162963579496ZM236.5, 178L228, 183L231, 189L229, 192L228, 199L227, 205.5L233, 208L236.44921788200736, 210.17285173386335L238.43456995906308, 199.200440317858L239, 181ZM254, 187L253, 192L255, 207Z" fill="rgba(255,0,255,0.3)" stroke="rgba(255,0,255,0.7)" stroke-width="0.5"></path></svg>