<svg xmlns="http://www.w3.org/2000/svg" width="452" height="432" viewBox="0 0 452 432"><path d="M232.5, 113L242.5, 115L254, 123.5L259, 134.5L259, 144.5L256.7949981689453, 150.04500317573547L254.05999755859375, 155.06000328063965L250.7949981689453, 159.545001745224L247.75, 164.25L260.5, 166L266, 170.5L269, 176.5L278, 215.5L280, 219.5L281, 232.5L276.5, 238L267.5, 240L265, 242.5L264.00000298023224, 295.0000022649765L263.75000071525574, 299.2500021457672L258.5, 307L255.09374856948853, 308.09375286102295L251.125, 308.625L246.59375143051147, 308.59374713897705L241.5, 308L234.5, 304L231.5, 304L224.5, 308L210.5, 308L204, 303.5L202, 297.5L202.22656260430813, 229.47656166553497L204.09765771776438, 224.47265273332596L207.44922057539225, 220.32421630620956L210, 218.5L211, 213.5L204, 206.5L202, 198.5L199.5, 196L191.5, 196L184.5, 199L179.5, 196L174.5, 195L155.5, 195L148, 189.5L146.95312571525574, 186.2968728542328L146.43750190734863, 182.56249809265137L146.4531271457672, 178.29687428474426L147, 173.5L152.73437437415123, 166.54687437415123L158.04687383770943, 165.10937383770943L162.5, 164.5L165.71875089406967, 164.34375089406967L169.12500143051147, 164.37500143051147L172.71875125169754, 164.59375125169754L177, 165.5L193, 165.5L219.25, 164.25L210.59705333411694, 152.46544460952282L208.56910827755928, 148.30589082837105L207.47954747080803, 143.89545485377312L207.03173485398293, 138.84326639771461L210, 127.5L218.5, 118ZM291.2111212902237, 134.4212039556587L293, 142.5L288.71868324279785, 148.593688249588L284.6769275665283, 150.0519368648529L280.5, 150L276, 148L273, 142.5L273, 137.5L278.5, 131Z" fill="rgba(255,0,255,0.3)" stroke="rgba(255,0,255,0.7)" stroke-width="0.5"></path></svg>