<svg xmlns="http://www.w3.org/2000/svg" width="339" height="456" viewBox="0 0 339 456"><path d="M40.5, 38L50.5, 38L53.6875, 39.3125L56.5, 41L58.9375, 43.0625L61, 45.5L68.5, 56L95.5, 72L102, 78.5L102.5, 88L102, 97.5L105, 103.5L105.64837503433228, 114.60162460803986L107.51287508010864, 119.73712527751923L108, 124.5L114.5, 132L121.5, 137L131.5, 141L142.5, 144L148.5, 144L166.5, 121L175, 115.5L175, 112.5L170, 103.5L169, 93.5L171, 83.5L176, 73.5L181.5, 68.5L196.5, 68L204.5, 72L220.5, 73L229.83495906554163, 80.40722562652081L230.3632806316018, 85.8554684408009L228.93071840703487, 90.53142166137695L225.16134305298328, 95.08548355102539L222.9689998626709, 99.0364990234375L221.8459378182888, 101.95609283447266L220.9767506122589, 105.08987426757812L220.3614380657673, 108.4378433227539L220, 112L223.90112495422363, 112.56187641620636L227.45149993896484, 113.58250141143799L230.65112495422363, 115.06187570095062L233.5, 117L236.5, 117L240, 111.5L243, 102.5L250, 94.5L254, 83.5L257.5, 80L262, 76.5L261, 63.5L264.72318720817566, 59.34818747639656L268.9285011291504, 57.928499698638916L272.44637727737427, 57.69637459516525L276.5, 58L279, 60.5L285, 76.5L291, 86.5L294.8691210746765, 90.13087570667267L298.325496673584, 94.17450046539307L301.36912393569946, 98.63087499141693L304, 103.5L308, 115.5L308, 126.5L305, 137.5L296, 152L277, 162.5L278, 168.5L292, 191.5L293.2499985694885, 194.2499978542328L293.99999618530273, 197.49999809265137L294.2499957084656, 201.24999928474426L294, 205.5L291, 211.5L291, 217.5L301, 241.5L301.9999957084656, 245.49999928474426L302.49999618530273, 249.99999809265137L302.4999985694885, 254.9999978542328L302, 260.5L298, 270.5L298, 288.5L289.5, 299L283, 304.5L278.5, 310L274, 313.5L272, 317.5L272.2968764305115, 322.0468692779541L272.06250381469727, 326.06249237060547L271.2968792915344, 329.5468692779541L270, 332.5L268.0618681907654, 335.31187105178833L266.58249282836914, 338.58249282836914L265.56187105178833, 342.3118681907654L265, 346.5L260.5, 352L257.5, 354L241, 354L240, 357.5L245, 366.5L248, 380.5L254, 390.5L255, 400.5L253, 405L243.5, 409L237.5, 415L234.5, 415L230.5, 414L217.5, 422L207.5, 426L202, 422.5L201, 417.5L204, 402.5L209, 390.5L209, 381.5L202.5, 373L189.5, 372L171.5, 377L166.5, 376L159, 381.5L152.7695307135582, 383.9492176771164L151, 381.5L145.7695307135582, 379.0507823228836L144, 381.5L142.6875, 385.18749713897705L141, 388.5L138.9375, 391.43750286102295L130.5638288729824, 396.8411683216691L126.44267199933529, 397.06767106056213L120.91887593269348, 395.33111906051636L116.80850028991699, 393.1914939880371L113.168874502182, 390.5811219215393L107.36767749115825, 382.573723629117L106.91015681624413, 376.9960914850235L110, 369.5L124.5, 353L132, 346.5L137, 334.5L146, 321.5L150, 310.5L150, 305.5L140.5, 290L131.5, 287L121.5, 287L117.4323749691248, 287.93237590789795L113.58049976825714, 289.0805015563965L109.94437448680401, 290.4443769454956L106.52399921417236, 292.0240020751953L103.31937403976917, 293.8193769454956L100.3304990530014, 295.8305015563965L97.55737434327602, 298.05737590789795L93.8046875, 302.42968544363976L92.234375, 306.4843741059303L91.671875, 310.92187732458115L91.859375, 316.10937625169754L97, 338.5L97, 345.5L92, 360.5L95, 366.5L94.34381300210953, 373.4688138961792L90.63556307554245, 376.26056575775146L86.5, 377L83.3281239271164, 375.9218692779541L80.68749904632568, 374.31249237060547L78.57812464237213, 372.1718692779541L77, 369.5L67, 354.5L61, 340.5L60, 336.5L60.29892164468765, 312.04892352223396L61.902983486652374, 306.6529894769192L64.32379585504532, 302.07380095124245L67.56135874986649, 298.31136080622673L70.5, 296L88.5, 289L107.25, 274.75L86.5, 274L80, 269.5L78.5, 258L78.5, 249L79, 240.5L84.5, 234L87.5, 233L107.00180829071905, 223.8243730578106L104.5, 222L96, 214.5L94, 210.5L93, 203.5L98, 189.5L107.50112418457866, 182.94643658120185L113.02869471907616, 182.84119438380003L125.5, 189L129.09140574932098, 187.94373428821564L128.95663851499557, 182.6200230717659L126.73652270436287, 176.6653787791729L111.5938503947109, 160.65614636987448L106.29476473852992, 159.70523397624493L101.62503112107515, 159.87496903538704L90, 151.5L83.5, 140L80.13087499141693, 139.36912751197815L75.90268808603287, 137.59731423854828L72.5, 135L69.5, 135L62.92568790912628, 145.1993124485016L61.65993845462799, 140.96506476402283L62, 136.5L66, 131.5L60.5, 122L55, 121L52.5, 126L49.5, 127L47, 124.5L46, 112.5L36, 92.5L36, 81.5L30, 58.5L31.749999672174454, 54.25000083446503L35.7499997317791, 50.25000035762787L37, 47.5L36, 43.5ZM49, 64L46, 68L47, 75L52, 78L56, 77L59, 80L57, 89L60, 98L64, 100L71, 99L75, 93L74, 81L71.81250071525574, 78.31249964237213L69.25, 76.24999904632568L66.31249928474426, 74.8124989271164L63, 74L58.12500008940697, 68.87499928474426L55.00000047683716, 65.99999809265137L52.2500005364418, 64.74999856948853ZM125, 245L122, 249L121, 266L117, 273L122.08593739569187, 275.20312625169754L132.799559682142, 273.7250966336578L133, 268L133, 261L136, 255L136, 251L133.81249856948853, 248.75000286102295L131.25, 247.00000381469727L128.31250143051147, 245.75000286102295Z" fill="rgba(255,0,255,0.3)" stroke="rgba(255,0,255,0.7)" stroke-width="0.5"></path></svg>